<?xml version="1.0" standalone="no"?><!DOCTYPE svg PUBLIC "-//W3C//DTD SVG 1.1//EN" "http://www.w3.org/Graphics/SVG/1.1/DTD/svg11.dtd"><svg t="1530674722186" class="icon" style="" viewBox="0 0 1024 1024" version="1.1" xmlns="http://www.w3.org/2000/svg" p-id="4082" xmlns:xlink="http://www.w3.org/1999/xlink" width="64" height="64"><defs><style type="text/css"></style></defs><path d="M928 736l-32 0 0-128 0-64L544 544l0-128 64 0c35.4 0 64-28.6 64-64L672 158c0-35.4-28.6-64-64-64l-192 0c-35.4 0-64 28.6-64 64l0 194c0 35.4 28.6 64 64 64l64 0 0 128L128 544l0 64 0 128L96 736c-17.6 0-32 14.4-32 32l0 128c0 17.6 14.4 32 32 32l128 0c17.6 0 32-14.4 32-32l0-128c0-17.6-14.4-32-32-32L192 736l0-128 288 0 0 128-32 0c-17.6 0-32 14.4-32 32l0 128c0 17.6 14.4 32 32 32l128 0c17.6 0 32-14.4 32-32l0-128c0-17.6-14.4-32-32-32l-32 0 0-128 288 0 0 128-32 0c-17.6 0-32 14.4-32 32l0 128c0 17.6 14.4 32 32 32l128 0c17.6 0 32-14.4 32-32l0-128C960 750.4 945.6 736 928 736z" p-id="4083"></path></svg>