<?xml version="1.0" standalone="no"?><!DOCTYPE svg PUBLIC "-//W3C//DTD SVG 1.1//EN" "http://www.w3.org/Graphics/SVG/1.1/DTD/svg11.dtd"><svg t="1531795615650" class="icon" style="" viewBox="0 0 1024 1024" version="1.1" xmlns="http://www.w3.org/2000/svg" p-id="5209" xmlns:xlink="http://www.w3.org/1999/xlink" width="64" height="64"><defs><style type="text/css"></style></defs><path d="M1022.317714 780.214857a45.056 45.056 0 0 0-1.828571-26.112 45.348571 45.348571 0 0 0-7.314286-10.971428c-0.950857-1.243429-1.462857-2.706286-2.56-3.803429l-136.923428-136.996571a45.714286 45.714286 0 0 0-64.658286 64.658285l58.88 58.953143H729.892571c-55.369143 0-110.153143-53.76-168.228571-110.665143C525.019429 579.218286 485.668571 540.818286 441.417143 512c44.251429-28.818286 83.602286-67.218286 120.393143-103.277714 58.002286-56.905143 112.786286-110.665143 168.228571-110.665143h137.947429l-58.88 58.953143a45.714286 45.714286 0 0 0 64.658285 64.658285l136.923429-136.996571c1.097143-1.097143 1.536-2.56 2.486857-3.730286a45.202286 45.202286 0 0 0 7.314286-11.044571 45.056 45.056 0 0 0 1.901714-26.112c-0.585143-2.998857-0.731429-6.070857-1.828571-8.923429a45.348571 45.348571 0 0 0-7.753143-11.629714c-0.804571-1.024-1.170286-2.194286-2.121143-3.218286l-136.923429-136.923428a45.787429 45.787429 0 0 0-64.658285 64.658285l58.88 58.88H729.892571c-92.745143 0-163.693714 69.558857-232.155428 136.850286-64.365714 63.195429-125.147429 122.806857-195.803429 122.806857H45.714286a45.714286 45.714286 0 0 0 0 91.428572h256.219428c70.656 0 131.437714 59.611429 195.803429 122.806857 68.461714 67.291429 139.410286 136.777143 232.155428 136.777143h138.020572l-58.88 58.953143a45.860571 45.860571 0 0 0 32.329143 78.043428c11.702857 0 23.405714-4.461714 32.329143-13.385143l136.923428-136.923428c0.950857-0.950857 1.316571-2.194286 2.121143-3.145143 2.998857-3.657143 5.851429-7.314286 7.753143-11.702857 1.170286-2.925714 1.243429-5.851429 1.828571-8.923429z" p-id="5210"></path></svg>
