<?xml version="1.0" standalone="no"?><!DOCTYPE svg PUBLIC "-//W3C//DTD SVG 1.1//EN" "http://www.w3.org/Graphics/SVG/1.1/DTD/svg11.dtd"><svg t="1530868922126" class="icon" style="" viewBox="0 0 1024 1024" version="1.1" xmlns="http://www.w3.org/2000/svg" p-id="1963" xmlns:xlink="http://www.w3.org/1999/xlink" width="64" height="64"><defs><style type="text/css"></style></defs><path d="M878 92H203.96v111.96H122c-15.36 0-30 10.92-30 26.34v55.98c0 15.48 14.64 29.7 30 29.7h81.9v55.98H122c-15.36 0-30 10.92-30 26.34v55.98c0 15.42 14.64 29.64 30 29.64h81.9v56.1H122c-15.36 0-30 10.86-30 26.28v56.04c0 15.42 14.64 29.64 30.06 29.64h81.9v55.98H122c-15.36 0-30 10.92-30 26.34v56.04c0 15.48 14.64 29.64 30.06 29.64h81.9V932H878c30.96 0 54-26.82 54-57.72V146.3c0-30.96-23.1-54.3-54-54.3zM371.96 875.9H260v-55.98h30c15.42 0 25.98-14.16 25.98-29.64V734.3c0-15.48-10.5-26.4-25.98-26.4h-30v-55.98h30c15.42 0 25.98-14.22 25.98-29.64V566.3c0-15.42-10.5-26.28-25.98-26.28h-30v-56.1h30c15.42 0 25.98-14.22 25.98-29.64V398.3c0-15.42-10.5-26.34-25.98-26.34h-30v-55.98h30c15.42 0 25.98-14.22 25.98-29.7V230.3c0-15.42-10.5-26.34-25.98-26.34h-30v-55.98h111.9V875.9h0.06z m0 0z" fill="" p-id="1964"></path></svg>