<?xml version="1.0" standalone="no"?><!DOCTYPE svg PUBLIC "-//W3C//DTD SVG 1.1//EN" "http://www.w3.org/Graphics/SVG/1.1/DTD/svg11.dtd"><svg t="1522745130485" class="icon" style="" viewBox="0 0 1024 1024" version="1.1" xmlns="http://www.w3.org/2000/svg" p-id="2185" xmlns:xlink="http://www.w3.org/1999/xlink" width="200" height="200"><defs><style type="text/css"></style></defs><path d="M985.996 140l-947.992 0c-20.992 0-38.004 17.013-38.004 38l0 475 190.512 0 111.033-108.186c8.819 4.582 18.83 7.186 29.455 7.186 7.283 0 14.273-1.233 20.796-3.475l70.173 96.432c-0.625 3.589-0.969 7.274-0.969 11.043 0 35.347 28.654 64 64 64 34.771 0 63.045-27.733 63.957-62.285l188.259-186.383c15.138 8.081 32.425 12.668 50.784 12.668 59.646 0 108-48.354 108-108s-48.354-108-108-108-108 48.354-108 108c0 17.986 4.402 34.942 12.18 49.859l-176.004 174.25c-9.227-5.158-19.854-8.109-31.176-8.109-7.012 0-13.753 1.144-20.066 3.228l-70.724-97.187c0.516-3.272 0.79-6.624 0.79-10.041 0-35.347-28.654-64-64-64-35.346 0-64 28.653-64 64 0 0.365 0.021 0.726 0.027 1.09l-102.539 99.91-100.488 0 0-358.005c0-13.252 10.746-23.995 23.995-23.995l848.01 0c13.252 0 23.995 10.749 23.995 23.995l0 493.01c0 13.252-10.746 23.995-23.995 23.995l-808.005 0.068c-0.662-0.041-1.328-0.068-2-0.068-17.673 0-32 14.327-32 32s14.327 32 32 32c0.672 0 1.338-0.027 2-0.068l0 0.068 288 0 0 96-156.996 0c-17.675 0-32.004 14.327-32.004 32 0 17.677 14.329 32 32.004 32l476.992 0c17.675 0 32.004-14.327 32.004-32 0-17.677-14.328-32-32.004-32l-127.996 0 0-96 377.996 0c20.992 0 38.004-17.013 38.004-38l0-596c0-20.985-17.015-38-38.004-38zM788 332c24.301 0 44 19.699 44 44s-19.699 44-44 44-44-19.699-44-44 19.699-44 44-44z" p-id="2186"></path></svg>