<?xml version="1.0" standalone="no"?><!DOCTYPE svg PUBLIC "-//W3C//DTD SVG 1.1//EN" "http://www.w3.org/Graphics/SVG/1.1/DTD/svg11.dtd"><svg t="1531795119503" class="icon" style="" viewBox="0 0 1024 1024" version="1.1" xmlns="http://www.w3.org/2000/svg" p-id="4713" xmlns:xlink="http://www.w3.org/1999/xlink" width="64" height="64"><defs><style type="text/css"></style></defs><path d="M482.816 109.568c130.048 0 243.2 71.68 302.592 177.664l-169.984 169.984H1017.856L1024 48.64l-158.72 158.72c-81.92-124.928-222.72-207.36-382.464-207.36-251.904 0-457.216 205.312-457.216 457.216h109.568c0-191.488 156.16-347.648 347.648-347.648zM566.784 914.432c-130.048 0-243.2-71.68-302.592-177.664l169.984-169.984h-402.432l-6.144 408.576 158.72-158.72c81.92 124.928 222.72 207.36 382.464 207.36 251.904 0 457.216-205.312 457.216-457.216h-109.568c0 191.488-156.16 347.648-347.648 347.648z" p-id="4714"></path></svg>
