<?xml version="1.0" standalone="no"?><!DOCTYPE svg PUBLIC "-//W3C//DTD SVG 1.1//EN" "http://www.w3.org/Graphics/SVG/1.1/DTD/svg11.dtd"><svg t="1527845775267" class="icon" style="" viewBox="0 0 1024 1024" version="1.1" xmlns="http://www.w3.org/2000/svg" p-id="3529" xmlns:xlink="http://www.w3.org/1999/xlink" width="200" height="200"><defs><style type="text/css"></style></defs><path d="M129.51 554.416c14.71-0.364 26.347-12.601 25.983-27.336-0.755-29.471 2.161-59.307 8.644-88.57 21.192-95.548 78.313-177.141 160.843-229.731 82.504-52.538 180.603-69.877 276.151-48.633 27.18 5.988 53.554 15.048 78.469 26.92 41.213 19.63 77.922 46.446 109.164 79.719 17.73 18.901 33.507 39.781 46.889 61.963 6.04 9.997 17.964 14.996 29.159 12.132a26.62 26.62 0 0 0 20.281-24.212l9.112-145.014c0.911-14.684-10.232-27.337-24.941-28.274-14.736-1.666-27.336 10.258-28.274 24.941l-4.504 71.7a389.576 389.576 0 0 0-8.826-9.685c-35.824-38.167-77.922-68.94-125.123-91.382a420.48 420.48 0 0 0-89.872-30.877c-109.45-24.316-221.79-4.478-316.349 55.766C201.784 224.035 136.358 317.5 112.068 426.95c-7.394 33.533-10.726 67.69-9.893 101.484 0.364 14.475 12.236 25.983 26.66 25.983l0.675-0.001zM932.605 431.323c-3.046-14.423-17.131-23.431-31.58-20.568-14.423 3.02-23.64 17.183-20.594 31.606 10.804 51.184 10.518 103.254-0.911 154.751-21.192 95.548-78.313 177.141-160.843 229.731-82.504 52.59-180.629 69.981-276.125 48.633-118.771-26.347-216.505-109.658-261.415-222.858-4.582-11.455-16.506-18.068-28.534-16.558-12.21 1.718-21.635 11.612-22.78 23.9l-14.606 153.71c-1.406 14.632 9.346 27.649 24.004 29.055 14.736 0.781 27.675-9.425 29.055-24.056l6.222-65.243c59.516 87.737 150.715 150.637 256.495 174.121 30.513 6.769 61.208 10.102 91.721 10.102 78.964 0 156.417-22.39 224.628-65.868 94.532-60.192 159.984-153.657 184.248-263.107 13.069-58.945 13.408-118.616 1.015-177.351z" fill="#1296db" p-id="3530"></path><path d="M448.332 349.99c-8.852 4.582-14.397 13.746-14.397 23.692V681.83a26.71 26.71 0 0 0 14.007 23.483 26.595 26.595 0 0 0 12.653 3.176 26.579 26.579 0 0 0 14.632-4.374l226.268-148.502a26.69 26.69 0 0 0 12.028-21.817c0.156-8.852-4.087-17.183-11.299-22.234L475.955 351.917a26.785 26.785 0 0 0-27.623-1.927z m38.922 75.137l152.225 107.419-152.225 99.922V425.127z" fill="#1296db" p-id="3531"></path></svg>