<?xml version="1.0" standalone="no"?><!DOCTYPE svg PUBLIC "-//W3C//DTD SVG 1.1//EN" "http://www.w3.org/Graphics/SVG/1.1/DTD/svg11.dtd"><svg t="1527845851518" class="icon" style="" viewBox="0 0 1024 1024" version="1.1" xmlns="http://www.w3.org/2000/svg" p-id="5187" xmlns:xlink="http://www.w3.org/1999/xlink" width="64" height="64"><defs><style type="text/css"></style></defs><path d="M512 936.021333c-233.813333 0-424.021333-190.250667-424.021333-424.021333S278.229333 87.978667 512 87.978667 936.021333 278.229333 936.021333 512 745.770667 936.021333 512 936.021333z m0-816c-216.149333 0-392.021333 175.829333-392.021333 391.978667 0 216.149333 175.872 392.021333 392.021333 392.021333 216.149333 0 392.021333-175.872 392.021333-392.021333 0-216.149333-175.872-392.021333-392.021333-392.021333z" fill="#1afa29" p-id="5188"></path><path d="M447.573333 717.354667c-26.154667 0-47.445333-21.333333-47.445333-47.616V354.048c0-10.410667 3.328-20.266667 9.642667-28.544 7.424-9.941333 18.474667-16.512 31.061333-18.346667a46.933333 46.933333 0 0 1 35.2 8.96l210.517333 157.866667a47.530667 47.530667 0 0 1 0.085334 75.818667l-208.384 156.16c-7.68 7.04-18.944 11.392-30.634667 11.392z m0.085334-378.666667a15.189333 15.189333 0 0 0-12.373334 6.144 14.805333 14.805333 0 0 0-3.157333 9.216v315.733333c0 12.373333 16.426667 20.096 25.813333 11.52l209.450667-157.013333a15.488 15.488 0 0 0 2.986667-21.632l-2.986667-3.072-210.56-157.866667a15.189333 15.189333 0 0 0-9.173333-3.072z" fill="#1afa29" p-id="5189"></path></svg>