<?xml version="1.0" standalone="no"?><!DOCTYPE svg PUBLIC "-//W3C//DTD SVG 1.1//EN" "http://www.w3.org/Graphics/SVG/1.1/DTD/svg11.dtd"><svg t="1527845801842" class="icon" style="" viewBox="0 0 1024 1024" version="1.1" xmlns="http://www.w3.org/2000/svg" p-id="4311" xmlns:xlink="http://www.w3.org/1999/xlink" width="200" height="200"><defs><style type="text/css"></style></defs><path d="M512 0C230.4 0 0 230.4 0 512c0 281.6 230.4 512 512 512 117.76 0 227.84-38.4 320-110.08 10.24-7.68 12.8-23.04 5.12-35.84-7.68-10.24-23.04-12.8-35.84-5.12C719.36 939.52 616.96 972.8 512 972.8 256 972.8 51.2 768 51.2 512 51.2 256 256 51.2 512 51.2 768 51.2 972.8 256 972.8 512c0 87.04-25.6 171.52-69.12 243.2-7.68 12.8-2.56 28.16 7.68 33.28 12.8 7.68 28.16 2.56 33.28-7.68 51.2-79.36 76.8-174.08 76.8-271.36C1024 230.4 793.6 0 512 0z" p-id="4312" fill="#d81e06"></path><path d="M686.08 307.2 337.92 307.2c-17.92 0-30.72 12.8-30.72 30.72l0 348.16c0 17.92 12.8 30.72 30.72 30.72l348.16 0c17.92 0 30.72-12.8 30.72-30.72L716.8 337.92C716.8 320 704 307.2 686.08 307.2zM665.6 657.92c0 5.12-2.56 7.68-7.68 7.68L366.08 665.6c-5.12 0-7.68-2.56-7.68-7.68L358.4 366.08c0-5.12 2.56-7.68 7.68-7.68l291.84 0c5.12 0 7.68 2.56 7.68 7.68L665.6 657.92z" p-id="4313" fill="#d81e06"></path></svg>