<?xml version="1.0" standalone="no"?><!DOCTYPE svg PUBLIC "-//W3C//DTD SVG 1.1//EN" "http://www.w3.org/Graphics/SVG/1.1/DTD/svg11.dtd"><svg t="1504994678730" class="icon" style="" viewBox="0 0 1024 1024" version="1.1" xmlns="http://www.w3.org/2000/svg" p-id="9215" xmlns:xlink="http://www.w3.org/1999/xlink" width="64" height="64"><defs><style type="text/css"></style></defs><path d="M1001.023998 743.999997l-55.04 0 0-181.567999c0-35.392-28.608-64-64-64l-307.007999 0 0-115.328 120.448 0c12.672 0 22.912-9.664 22.912-21.568l0-339.839999c0-11.968-10.24-21.632-22.912-21.632l-366.847999 0c-12.608-0.064-22.912 9.6-22.912 21.568l0 339.839999c0 11.904 10.304 21.568 22.912 21.568l118.4 0 0 115.392-306.943999 0c-35.328 0-64 28.608-64 64l0 181.503999-53.12 0c-12.672 0.064-22.912 9.728-22.912 21.696l0 236.799999c0 11.904 10.24 21.568 22.912 21.568l244.479999 0c12.736 0 22.976-9.664 22.976-21.568l0-236.799999c0-11.968-10.24-21.632-22.976-21.632l-63.36 0 0-117.568 243.007999 0 0 117.568-57.344 0c-12.672 0-22.976 9.664-22.976 21.632l0 236.735999c0 11.968 10.304 21.632 22.976 21.632l244.479999 0c12.736 0 22.976-9.664 22.976-21.568l0-236.799999c0-11.968-10.24-21.632-22.976-21.632l-59.2 0 0-117.568 243.007999 0 0 117.568-61.44 0c-12.672 0-22.976 9.664-22.976 21.632l0 236.735999c0 11.904 10.304 21.568 22.976 21.568l244.479999 0c12.736 0.064 22.976-9.6 22.976-21.504l0-236.799999c0-11.968-10.24-21.632-22.976-21.632z"></path></svg>
